<?xml version="1.0"?>
<svg xmlns="http://www.w3.org/2000/svg" xmlns:xlink="http://www.w3.org/1999/xlink" xmlns:svgjs="http://svgjs.com/svgjs" version="1.1" width="512" height="512" x="0" y="0" viewBox="0 0 480 480" style="enable-background:new 0 0 512 512" xml:space="preserve" class=""><g><path xmlns="http://www.w3.org/2000/svg" d="m240 160h-24v48h24c13.253906 0 24-10.746094 24-24s-10.746094-24-24-24zm0 0" fill="#ffffff" data-original="#000000" style="" class=""/><path xmlns="http://www.w3.org/2000/svg" d="m240 96h-24v48h24c13.253906 0 24-10.746094 24-24s-10.746094-24-24-24zm0 0" fill="#ffffff" data-original="#000000" style="" class=""/><path xmlns="http://www.w3.org/2000/svg" d="m126.640625 96-9 48h20.71875l-9-48zm0 0" fill="#ffffff" data-original="#000000" style="" class=""/><path xmlns="http://www.w3.org/2000/svg" d="m472 320h-24v-320h-416v320h-24c-4.417969 0-8 3.582031-8 8s3.582031 8 8 8h148.457031l-43.953125 117.191406c-1.546875 4.140625.554688 8.75 4.695313 10.296875s8.75-.554687 10.296875-4.695312l22.046875-58.792969h180.914062l22.046875 58.808594c1.171875 3.125 4.160156 5.195312 7.496094 5.191406.960938-.003906 1.914062-.175781 2.816406-.503906 4.136719-1.550782 6.234375-6.167969 4.679688-10.304688l-43.953125-117.191406h148.457031c4.417969 0 8-3.582031 8-8s-3.582031-8-8-8zm-272-232c0-4.417969 3.582031-8 8-8h32c17.253906-.050781 32.582031 11 37.988281 27.386719 5.40625 16.382812-.339843 34.386719-14.234375 44.613281 13.894532 10.226562 19.640625 28.230469 14.234375 44.613281-5.40625 16.386719-20.734375 27.4375-37.988281 27.386719h-32c-4.417969 0-8-3.582031-8-8zm-47.855469 129.472656-10.785156-57.472656h-26.71875l-10.785156 57.472656c-.417969 2.910156-2.398438 5.355469-5.15625 6.371094-2.757813 1.015625-5.851563.433594-8.054688-1.511719-2.203125-1.941406-3.164062-4.941406-2.5-7.804687l24-128c.707031-3.78125 4.007813-6.523438 7.855469-6.527344h16c3.847656.003906 7.148438 2.746094 7.855469 6.527344l24 128c.664062 2.863281-.296875 5.863281-2.5 7.804687-2.203125 1.945313-5.296875 2.527344-8.054688 1.511719-2.757812-1.015625-4.738281-3.460938-5.15625-6.371094zm172.3125 166.527344h-168.914062l18-48h132.914062zm-12.457031-200v-64c0-22.089844 17.910156-40 40-40s40 17.910156 40 40c0 4.417969-3.582031 8-8 8s-8-3.582031-8-8c0-13.253906-10.746094-24-24-24s-24 10.746094-24 24v64c0 13.253906 10.746094 24 24 24s24-10.746094 24-24c0-4.417969 3.582031-8 8-8s8 3.582031 8 8c0 22.089844-17.910156 40-40 40s-40-17.910156-40-40zm120 136h-16v-16h-48v16h-16v-24c0-4.417969 3.582031-8 8-8h64c4.417969 0 8 3.582031 8 8zm0 0" fill="#ffffff" data-original="#000000" style="" class=""/></g></svg>
