<?xml version="1.0"?>
<svg xmlns="http://www.w3.org/2000/svg" xmlns:xlink="http://www.w3.org/1999/xlink" xmlns:svgjs="http://svgjs.com/svgjs" version="1.1" width="512" height="512" x="0" y="0" viewBox="0 0 640 640" style="enable-background:new 0 0 512 512" xml:space="preserve" class=""><g><path xmlns="http://www.w3.org/2000/svg" d="m300 0c-165.683594 0-300 134.316406-300 300s134.316406 300 300 300 300-134.316406 300-300c-.1875-165.605469-134.394531-299.8125-300-300zm280 300c-.023438 11.75-.785156 23.480469-2.28125 35.132812-21-79.351562-96.316406-144.453124-198.148438-166.84375.28125-2.75.429688-5.519531.429688-8.289062 0-18.078125-6.148438-35.617188-17.441406-49.730469 9.101562-25.300781 15.378906-51.523437 18.730468-78.199219 117.921876 35.9375 198.554688 144.652344 198.710938 267.929688zm-280 280c-33.109375 0-70-82.140625-70-200 0-58.882812 9.75-114.78125 26.25-153.109375 26.546875 17.480469 60.953125 17.480469 87.5 0 16.5 38.328125 26.25 94.226563 26.25 153.109375 0 117.859375-36.890625 200-70 200zm0-360c-33.132812 0-60-26.867188-60-60s26.867188-60 60-60 60 26.867188 60 60c-.035156 33.125-26.875 59.964844-60 60zm61.765625-193c-2.8125 23.175781-7.859375 46.023438-15.066406 68.230469-27.839844-20.238281-65.558594-20.238281-93.398438 0-7.207031-22.207031-12.253906-45.054688-15.066406-68.230469 40.652344-9.265625 82.878906-9.265625 123.53125 0zm-143.054687 5.117188c3.351562 26.675781 9.628906 52.902343 18.730468 78.203124-11.277344 14.101563-17.433594 31.625-17.441406 49.679688 0 2.769531.148438 5.539062.429688 8.289062-101.832032 22.390626-177.1875 87.492188-198.148438 166.84375-17.414062-135.460937 65.667969-263.644531 196.429688-303.0625zm-181.5 364.554687c-.664063-5.535156-1-11.101563-1.007813-16.671875 0-89.511719 77.425781-167.898438 188.855469-192.261719 3.496094 9.402344 8.722656 18.058594 15.410156 25.523438-19.339844 41.347656-30.46875 101.394531-30.46875 166.738281 0 88.570312 19.351562 161.582031 48.757812 196.9375-101.171874-15.25-186.046874-84.3125-221.546874-180.265625zm304 180.265625c29.4375-35.355469 48.789062-108.367188 48.789062-196.9375 0-65.34375-11.128906-125.390625-30.46875-166.738281 6.6875-7.464844 11.914062-16.121094 15.410156-25.523438 111.429688 24.363281 188.855469 102.75 188.855469 192.261719-.003906 5.570312-.335937 11.136719-1 16.671875-35.5 95.960937-120.378906 165.023437-221.554687 180.265625zm0 0" fill="#ffffff" data-original="#000000" style="" class=""/></g></svg>
