<?xml version="1.0"?>
<svg xmlns="http://www.w3.org/2000/svg" xmlns:xlink="http://www.w3.org/1999/xlink" xmlns:svgjs="http://svgjs.com/svgjs" version="1.1" width="512" height="512" x="0" y="0" viewBox="0 0 480.04453 480" style="enable-background:new 0 0 512 512" xml:space="preserve" class=""><g><linearGradient xmlns="http://www.w3.org/2000/svg" id="a"><stop stop-opacity="1" stop-color="#ffffff" offset="1"/><stop stop-opacity="1" stop-color="#f9a86d" offset="1"/><stop stop-opacity="1" stop-color="#ffffff" offset="1"/></linearGradient><linearGradient xmlns="http://www.w3.org/2000/svg" xmlns:xlink="http://www.w3.org/1999/xlink" id="b" gradientUnits="userSpaceOnUse" x1="-7.972392" x2="457.747608" xlink:href="#a" y1="224.05489" y2="224.05489"/><linearGradient xmlns="http://www.w3.org/2000/svg" xmlns:xlink="http://www.w3.org/1999/xlink" id="c" gradientUnits="userSpaceOnUse" x1="-7.972392" x2="457.747608" xlink:href="#a" y1="345.33489" y2="345.33489"/><path xmlns="http://www.w3.org/2000/svg" d="m8.027344 448.085938h464c2.214844.003906 4.332031-.910157 5.847656-2.523438 1.519531-1.613281 2.296875-3.785156 2.152344-5.996094l-24-368c-.273438-4.214844-3.777344-7.488281-8-7.480468h-48v-18.398438c.042968-6.574219-2.648438-12.867188-7.433594-17.375-60.109375-55.679688-113.894531-14.402344-128.941406-.386719-4.863282 4.539063-7.625 10.894531-7.625 17.546875v18.613282h-48c-4.222656-.007813-7.726563 3.265624-8 7.480468l-7.199219 110.816406c-56.855469-29.414062-105.105469 2.550782-119.824219 14.28125-5.699218 4.535157-9.003906 11.429688-8.976562 18.710938v24.710938h-40c-4.171875-.011719-7.652344 3.179687-8 7.335937l-16.0000002 192c-.1874998 2.234375.5742182 4.445313 2.0937502 6.09375 1.523437 1.644531 3.664062 2.578125 5.90625 2.570313zm264-402.613282c-.015625-2.214844.898437-4.335937 2.519531-5.839844 16-14.882812 58.542969-44.632812 107.199219.414063 1.511718 1.484375 2.335937 3.523437 2.28125 5.640625v18.398438h-16v-.671876c.007812-6.894531-2.941406-13.464843-8.105469-18.039062-17.429687-17.476562-45.675781-17.683594-63.359375-.464844-5.398438 4.578125-8.519531 11.296875-8.535156 18.375v.800782h-16zm32 18.613282v-.800782c.019531-2.394531 1.089844-4.664062 2.929687-6.207031 5.53125-5.824219 13.226563-9.097656 21.257813-9.046875 8.035156.054688 15.6875 3.429688 21.140625 9.328125 1.710937 1.550781 2.695312 3.753906 2.703125 6.0625v.664063zm-88.503906 16h225.007812l22.960938 352h-176.105469l-10.960938-131.503907 94.929688 66.074219c1.339843.929688 2.933593 1.429688 4.566406 1.429688.476563.003906.949219-.039063 1.417969-.128907 2.089844-.367187 3.945312-1.558593 5.152344-3.300781l48.101562-69.105469c2.523438-3.628906 1.628906-8.613281-2-11.136719l-61.503906-42.816406 23.707031-34.046875c2.523437-3.625 1.632813-8.609375-1.992187-11.136719l-96.105469-66.894531c-3.628907-2.523437-8.613281-1.628906-11.136719 2l-48.101562 69.101563c-2.523438 3.628906-1.628907 8.613281 2 11.136718l61.503906 42.816407-21.738282 31.257812-3.199218-38.402343c-.34375-4.160157-3.824219-7.355469-8-7.34375h-40v-24.496094c.023437-7.207032-3.210938-14.039063-8.800782-18.589844-2.335937-1.863281-4.671874-3.585938-7-5.226562zm114.398437 155.136718 14.898437 10.398438-10.6875 15.363281-14.898437-10.402344zm-23.824219 6.214844-54.933594-38.238281 38.960938-56 82.964844 57.75-19.125 27.488281-21.464844-14.941406c-3.628906-2.523438-8.613281-1.628906-11.136719 2zm25.457032 37.21875c1.34375.933594 2.941406 1.433594 4.578124 1.429688.472657 0 .941407-.042969 1.40625-.128907 2.089844-.367187 3.945313-1.558593 5.152344-3.300781l15.265625-21.921875 54.933594 38.242187-38.960937 56-82.964844-57.777343 19.125-27.488281zm-251.527344-63.28125c-.023438-2.40625 1.058594-4.691406 2.9375-6.199219 18.304687-14.601562 66.863281-43.761719 122.3125.34375 1.785156 1.503907 2.796875 3.734375 2.75 6.070313v24.496094h-16v-17.117188c0-2.367188-1.050782-4.609375-2.863282-6.128906-26.058593-22.027344-64.210937-22.027344-90.273437 0-1.8125 1.519531-2.863281 3.761718-2.863281 6.128906v17.117188h-16zm32 24.710938v-13.09375c18.957031-14.183594 44.972656-14.246094 64-.160157v13.253907zm-80.640625 16h225.28125l14.664062 176h-254.609375zm0 0" fill="url(#b)" data-original="url(#b)" style=""/><path xmlns="http://www.w3.org/2000/svg" d="m191.476562 406.800781-6.90625-42.328125 29.183594-29.90625c2.097656-2.144531 2.816406-5.285156 1.863282-8.128906-.953126-2.84375-3.417969-4.914062-6.382813-5.367188l-40-6.113281-17.964844-38.269531c-1.3125-2.808594-13.171875-2.808594-14.480469 0l-17.96875 38.269531-40 6.113281c-2.964843.453126-5.429687 2.523438-6.382812 5.367188-.949219 2.84375-.234375 5.984375 1.863281 8.128906l29.183594 29.90625-6.90625 42.328125c-.492187 3.023438.785156 6.0625 3.289063 7.828125 2.507812 1.761719 5.800781 1.941406 8.480468.457032l35.679688-19.71875 35.679687 19.71875c1.1875.652343 2.519531.996093 3.871094 1 2.347656 0 4.578125-1.03125 6.097656-2.816407 1.519531-1.789062 2.175781-4.15625 1.800781-6.46875zm-21.175781-50.609375c-1.773437 1.816406-2.578125 4.367188-2.167969 6.871094l4.902344 30.046875-25.136718-13.886719c-2.40625-1.332031-5.332032-1.332031-7.742188 0l-25.136719 13.886719 4.902344-30.046875c.410156-2.503906-.394531-5.054688-2.167969-6.871094l-21.125-21.65625 28.796875-4.398437c2.640625-.40625 4.902344-2.097657 6.035157-4.515625l12.566406-26.703125 12.535156 26.703125c1.132812 2.417968 3.394531 4.109375 6.03125 4.515625l28.800781 4.398437zm0 0" fill="url(#c)" data-original="url(#c)" style=""/></g></svg>
