<?xml version="1.0"?>
<svg xmlns="http://www.w3.org/2000/svg" xmlns:xlink="http://www.w3.org/1999/xlink" xmlns:svgjs="http://svgjs.com/svgjs" version="1.1" width="512" height="512" x="0" y="0" viewBox="0 0 512 512" style="enable-background:new 0 0 512 512" xml:space="preserve" class=""><g><path xmlns="http://www.w3.org/2000/svg" d="m492.109375 406.671875v-75.34375h-50.578125c-18.382812-32.089844-49.761719-55.796875-86.910156-63.929687 9.089844-13.179688 15.480468-28.058594 18.707031-43.820313 19.292969-5.476563 33.472656-23.269531 33.472656-44.296875 0-20.132812-12.992187-37.292969-31.039062-43.519531v-16c0-66.03125-53.722657-119.761719-119.761719-119.761719s-119.761719 53.730469-119.761719 119.761719v16c-18.046875 6.226562-31.039062 23.386719-31.039062 43.519531 0 21.027344 14.179687 38.820312 33.472656 44.296875 3.226563 15.761719 9.617187 30.640625 18.707031 43.8125-37.148437 8.140625-68.507812 31.859375-86.898437 63.9375h-50.589844v75.34375h-19.890625v30h19.890625v75.328125h472.21875v-75.328125h19.890625v-30zm-406.058594 75.328125h-36.160156v-120.671875h36.160156zm169.949219-452c48.230469 0 87.691406 38.230469 89.679688 85.96875-16.78125-8.046875-33.039063-26.269531-38.589844-33.777344l-10.828125-15.203125-12.28125 13.902344c-.742188.75-10.191407 10.140625-30.269531 19.410156-17.359376 8.019531-46.0625 17.410157-87.472657 19.289063.089844-49.417969 40.320313-89.589844 89.761719-89.589844zm-104.441406 165.308594-.429688.011718c-8.800781-.058593-15.929687-7.230468-15.929687-16.039062 0-8.839844 7.191406-16.03125 16.039062-16.03125h15v-13.628906c67.882813-2.78125 107.992188-24.042969 126.800781-37.472656 11.210938 12.273437 30.421876 29.839843 52.722657 35.75v15.351562h15c8.847656 0 16.039062 7.191406 16.039062 16.03125 0 8.808594-7.128906 15.980469-15.921875 16.039062l-14.1875-.230468-1.402344 13.679687c-4.730468 45.859375-43.109374 80.441407-89.289062 80.441407s-84.558594-34.582032-89.289062-80.441407l-1.402344-13.679687zm132.800781 120.5-28.359375 39.121094-28.359375-39.121094c9.199219 2.242187 18.71875 3.402344 28.359375 3.402344s19.160156-1.160157 28.359375-3.402344zm111.589844 166.191406h-279.898438v-45.328125h279.898438zm0-150.671875v75.34375h-279.898438v-75.34375h-9.179687c16.777344-20.089844 41.070312-33.71875 68.507812-36.488281l80.621094 111.210937 80.609375-111.210937c27.449219 2.78125 51.742187 16.398437 68.519531 36.488281zm66.160156 150.671875h-36.160156v-120.671875h36.160156zm0 0" fill="#ffffff" data-original="#000000" style=""/></g></svg>
